<?xml version="1.0" encoding="utf-8"?>
<!-- Generator: Adobe Illustrator 25.0.1, SVG Export Plug-In . SVG Version: 6.00 Build 0)  -->
<svg version="1.1" id="Layer_1" xmlns="http://www.w3.org/2000/svg" xmlns:xlink="http://www.w3.org/1999/xlink" x="0px" y="0px"
	 viewBox="0 0 200 200" style="enable-background:new 0 0 200 200;" xml:space="preserve">
<style type="text/css">
	.st0{fill:#FFFFFF;}
</style>
<g>
	<path d="M25.79,42h26.1c5.14,0,9.24,0.7,12.29,2.09c3.04,1.4,5.49,3.4,7.33,6.01c1.84,2.61,3.07,5.65,3.7,9.11
		c0.63,3.47,0.77,7.14,0.43,11.01C75.1,76.31,74,81.02,72.32,84.37c-1.68,3.35-3.84,6.15-6.5,8.42c-2.65,2.26-5.42,3.77-8.31,4.52
		c-3.94,1.03-7.48,1.55-10.61,1.55h-26.1L25.79,42z M42.23,54.87l-2.72,31.06h4.3c3.67,0,6.32-0.41,7.94-1.22
		c1.62-0.81,2.96-2.24,4.02-4.27c1.06-2.03,1.78-5.32,2.18-9.87c0.53-6.02-0.1-10.15-1.87-12.37c-1.77-2.22-4.93-3.34-9.48-3.34
		H42.23z"/>
	<path d="M70.3,42h18.37l9.22,40.92L114.09,42h17.83l-26.09,56.86H86.8L70.3,42z"/>
	<path d="M129.16,42h26.1c5.14,0,9.24,0.7,12.29,2.09c3.04,1.4,5.49,3.4,7.33,6.01c1.84,2.61,3.07,5.65,3.7,9.11
		c0.63,3.47,0.77,7.14,0.43,11.01c-0.53,6.08-1.64,10.79-3.31,14.14c-1.68,3.35-3.84,6.15-6.5,8.42c-2.65,2.26-5.42,3.77-8.31,4.52
		c-3.94,1.03-7.48,1.55-10.61,1.55h-26.1L129.16,42z M145.6,54.87l-2.72,31.06h4.3c3.67,0,6.32-0.41,7.94-1.22
		c1.62-0.81,2.96-2.24,4.02-4.27c1.06-2.03,1.78-5.32,2.18-9.87c0.53-6.02-0.1-10.15-1.87-12.37c-1.77-2.22-4.93-3.34-9.48-3.34
		H145.6z"/>
</g>
<g>
	<path class="st0" d="M32.71,126.97h9.86l6.87,21.96l6.78-21.96h9.57l-11.33,30.52H44.24L32.71,126.97z"/>
	<path class="st0" d="M65.83,126.97h9.45v30.52h-9.45V126.97z"/>
	<path class="st0" d="M78.76,126.97h14.01c2.76,0,4.99,0.37,6.69,1.12c1.7,0.75,3.1,1.82,4.22,3.23c1.11,1.4,1.92,3.03,2.41,4.89
		c0.5,1.86,0.75,3.83,0.75,5.91c0,3.26-0.37,5.79-1.11,7.59c-0.74,1.8-1.77,3.3-3.09,4.52c-1.32,1.21-2.73,2.02-4.25,2.43
		c-2.07,0.56-3.94,0.83-5.62,0.83H78.76V126.97z M88.19,133.88v16.67h2.31c1.97,0,3.37-0.22,4.2-0.66c0.83-0.44,1.48-1.2,1.96-2.29
		c0.47-1.09,0.71-2.85,0.71-5.3c0-3.23-0.53-5.45-1.58-6.64c-1.05-1.19-2.8-1.79-5.25-1.79H88.19z"/>
	<path class="st0" d="M108.37,126.97h25.27v6.52h-15.82v4.85h14.67v6.22h-14.67v6.02h16.28v6.91h-25.73V126.97z"/>
	<path class="st0" d="M134.58,142.24c0-4.98,1.39-8.86,4.16-11.64c2.78-2.78,6.64-4.16,11.59-4.16c5.08,0,8.99,1.36,11.74,4.09
		c2.75,2.73,4.12,6.55,4.12,11.46c0,3.57-0.6,6.49-1.8,8.77c-1.2,2.28-2.93,4.06-5.2,5.33c-2.27,1.27-5.1,1.9-8.48,1.9
		c-3.44,0-6.29-0.55-8.54-1.64c-2.26-1.1-4.08-2.83-5.48-5.2C135.28,148.78,134.58,145.81,134.58,142.24z M144.01,142.29
		c0,3.08,0.57,5.29,1.72,6.64c1.14,1.35,2.7,2.02,4.67,2.02c2.03,0,3.59-0.66,4.7-1.98c1.11-1.32,1.67-3.68,1.67-7.1
		c0-2.87-0.58-4.97-1.74-6.3c-1.16-1.32-2.73-1.99-4.71-1.99c-1.9,0-3.43,0.67-4.58,2.02C144.58,136.95,144.01,139.18,144.01,142.29
		z"/>
</g>
</svg>
